<mxfile host="65bd71144e" modified="2024-04-17T22:36:37.775Z" agent="Mozilla/5.0 (Windows NT 10.0; Win64; x64) AppleWebKit/537.36 (KHTML, like Gecko) Code/1.88.1 Chrome/120.0.6099.291 Electron/28.2.8 Safari/537.36" etag="paCaApkEV5UG7CXMRrcz" version="24.2.5" type="embed">
    <diagram id="I4dKGTPQtQzw9f7KV-TR" name="Page-1">
        <mxGraphModel dx="1617" dy="809" grid="1" gridSize="10" guides="1" tooltips="1" connect="1" arrows="1" fold="1" page="1" pageScale="1" pageWidth="850" pageHeight="1100" background="#ffffff" math="0" shadow="0">
            <root>
                <mxCell id="0"/>
                <mxCell id="1" parent="0"/>
                <mxCell id="78" value="" style="rounded=1;whiteSpace=wrap;html=1;fillColor=#FAFAFA;fontColor=#333333;strokeColor=#666666;arcSize=4;fontSize=17;fontFamily=Times New Roman;" vertex="1" parent="1">
                    <mxGeometry x="780" y="40" width="360" height="370" as="geometry"/>
                </mxCell>
                <mxCell id="77" value="" style="rounded=1;whiteSpace=wrap;html=1;fillColor=#FAFAFA;fontColor=#333333;strokeColor=#666666;arcSize=4;fontSize=17;fontFamily=Times New Roman;" vertex="1" parent="1">
                    <mxGeometry x="60" y="40" width="700" height="370" as="geometry"/>
                </mxCell>
                <mxCell id="32" style="edgeStyle=none;html=1;exitX=0.5;exitY=1;exitDx=0;exitDy=0;entryX=0.5;entryY=0;entryDx=0;entryDy=0;fontSize=17;fontFamily=Times New Roman;" parent="1" source="5" target="7" edge="1">
                    <mxGeometry relative="1" as="geometry"/>
                </mxCell>
                <mxCell id="5" value="1a" style="ellipse;whiteSpace=wrap;html=1;aspect=fixed;fontSize=17;fontFamily=Times New Roman;" parent="1" vertex="1">
                    <mxGeometry x="165" y="145" width="30" height="30" as="geometry"/>
                </mxCell>
                <mxCell id="6" value="Submit subroutine S1" style="text;html=1;align=center;verticalAlign=middle;whiteSpace=wrap;rounded=0;fontSize=17;fontFamily=Times New Roman;" parent="1" vertex="1">
                    <mxGeometry x="195" y="150" width="80" height="30" as="geometry"/>
                </mxCell>
                <mxCell id="33" style="edgeStyle=none;html=1;exitX=0.5;exitY=1;exitDx=0;exitDy=0;entryX=0.5;entryY=0;entryDx=0;entryDy=0;fontSize=17;fontFamily=Times New Roman;" parent="1" source="7" target="12" edge="1">
                    <mxGeometry relative="1" as="geometry"/>
                </mxCell>
                <mxCell id="7" value="2a" style="ellipse;whiteSpace=wrap;html=1;aspect=fixed;fontSize=17;fontFamily=Times New Roman;" parent="1" vertex="1">
                    <mxGeometry x="165" y="230" width="30" height="30" as="geometry"/>
                </mxCell>
                <mxCell id="8" value="Start S1" style="text;html=1;align=center;verticalAlign=middle;whiteSpace=wrap;rounded=0;fontSize=17;fontFamily=Times New Roman;" parent="1" vertex="1">
                    <mxGeometry x="205" y="230" width="60" height="30" as="geometry"/>
                </mxCell>
                <mxCell id="12" value="3" style="ellipse;whiteSpace=wrap;html=1;aspect=fixed;fillColor=#d5e8d4;strokeColor=#82b366;fontSize=17;fontFamily=Times New Roman;" parent="1" vertex="1">
                    <mxGeometry x="165" y="310" width="30" height="30" as="geometry"/>
                </mxCell>
                <mxCell id="34" style="edgeStyle=none;html=1;exitX=1;exitY=0.5;exitDx=0;exitDy=0;entryX=0;entryY=0.5;entryDx=0;entryDy=0;fillColor=#dae8fc;strokeColor=#6c8ebf;strokeWidth=4;fontSize=17;fontFamily=Times New Roman;" parent="1" source="12" target="14" edge="1">
                    <mxGeometry relative="1" as="geometry"/>
                </mxCell>
                <mxCell id="13" value="&lt;div style=&quot;font-size: 17px;&quot;&gt;Entangled qubit QS created&lt;/div&gt;" style="text;html=1;align=center;verticalAlign=middle;whiteSpace=wrap;rounded=0;fontSize=17;fontFamily=Times New Roman;" parent="1" vertex="1">
                    <mxGeometry x="135" y="360" width="90" height="30" as="geometry"/>
                </mxCell>
                <mxCell id="35" style="edgeStyle=none;html=1;exitX=0.5;exitY=0;exitDx=0;exitDy=0;entryX=0.5;entryY=1;entryDx=0;entryDy=0;fillColor=#dae8fc;strokeColor=#6c8ebf;strokeWidth=4;fontSize=17;fontFamily=Times New Roman;" parent="1" source="14" target="16" edge="1">
                    <mxGeometry relative="1" as="geometry">
                        <mxPoint x="310" y="260" as="targetPoint"/>
                    </mxGeometry>
                </mxCell>
                <mxCell id="14" value="4a" style="ellipse;whiteSpace=wrap;html=1;aspect=fixed;fontSize=17;fontFamily=Times New Roman;" parent="1" vertex="1">
                    <mxGeometry x="295" y="310" width="30" height="30" as="geometry"/>
                </mxCell>
                <mxCell id="15" value="Bell corrections" style="text;html=1;align=center;verticalAlign=middle;whiteSpace=wrap;rounded=0;fontSize=17;fontFamily=Times New Roman;" parent="1" vertex="1">
                    <mxGeometry x="340" y="310" width="60" height="30" as="geometry"/>
                </mxCell>
                <mxCell id="36" style="edgeStyle=none;html=1;exitX=0.5;exitY=0;exitDx=0;exitDy=0;entryX=0.5;entryY=1;entryDx=0;entryDy=0;fillColor=#ffe6cc;strokeColor=#d79b00;strokeWidth=4;fontSize=17;fontFamily=Times New Roman;" parent="1" source="16" target="18" edge="1">
                    <mxGeometry relative="1" as="geometry"/>
                </mxCell>
                <mxCell id="16" value="5a" style="ellipse;whiteSpace=wrap;html=1;aspect=fixed;fontSize=17;fontFamily=Times New Roman;" parent="1" vertex="1">
                    <mxGeometry x="295" y="228.75" width="30" height="30" as="geometry"/>
                </mxCell>
                <mxCell id="17" value="Finish S1" style="text;html=1;align=center;verticalAlign=middle;whiteSpace=wrap;rounded=0;fontSize=17;fontFamily=Times New Roman;" parent="1" vertex="1">
                    <mxGeometry x="320" y="230" width="60" height="30" as="geometry"/>
                </mxCell>
                <mxCell id="18" value="6a" style="ellipse;whiteSpace=wrap;html=1;aspect=fixed;fontSize=17;fontFamily=Times New Roman;" parent="1" vertex="1">
                    <mxGeometry x="295" y="143.75" width="30" height="30" as="geometry"/>
                </mxCell>
                <mxCell id="37" style="edgeStyle=none;html=1;exitX=1;exitY=0.5;exitDx=0;exitDy=0;entryX=0;entryY=0.5;entryDx=0;entryDy=0;fillColor=#f8cecc;strokeColor=#b85450;strokeWidth=4;fontSize=17;fontFamily=Times New Roman;" parent="1" source="18" target="20" edge="1">
                    <mxGeometry relative="1" as="geometry"/>
                </mxCell>
                <mxCell id="19" value="Receive S1&lt;div style=&quot;font-size: 17px;&quot;&gt;results&lt;/div&gt;" style="text;html=1;align=center;verticalAlign=middle;whiteSpace=wrap;rounded=0;fontSize=17;fontFamily=Times New Roman;" parent="1" vertex="1">
                    <mxGeometry x="270" y="106.25" width="90" height="30" as="geometry"/>
                </mxCell>
                <mxCell id="20" value="7a" style="ellipse;whiteSpace=wrap;html=1;aspect=fixed;fontSize=17;fontFamily=Times New Roman;" parent="1" vertex="1">
                    <mxGeometry x="410" y="143.75" width="30" height="30" as="geometry"/>
                </mxCell>
                <mxCell id="38" style="edgeStyle=none;html=1;exitX=1;exitY=0.5;exitDx=0;exitDy=0;entryX=0;entryY=0.5;entryDx=0;entryDy=0;fillColor=#e1d5e7;strokeColor=#9673a6;strokeWidth=4;fontSize=17;fontFamily=Times New Roman;" parent="1" source="20" target="22" edge="1">
                    <mxGeometry relative="1" as="geometry"/>
                </mxCell>
                <mxCell id="21" value="Receive&lt;div style=&quot;font-size: 17px;&quot;&gt;message M&lt;/div&gt;" style="text;html=1;align=center;verticalAlign=middle;whiteSpace=wrap;rounded=0;fontSize=17;fontFamily=Times New Roman;" parent="1" vertex="1">
                    <mxGeometry x="367.5" y="100" width="85" height="30" as="geometry"/>
                </mxCell>
                <mxCell id="39" style="edgeStyle=none;html=1;exitX=0.5;exitY=1;exitDx=0;exitDy=0;entryX=0.5;entryY=0;entryDx=0;entryDy=0;fillColor=#f5f5f5;strokeColor=#666666;strokeWidth=4;fontSize=17;fontFamily=Times New Roman;" parent="1" source="22" target="24" edge="1">
                    <mxGeometry relative="1" as="geometry"/>
                </mxCell>
                <mxCell id="22" value="8a" style="ellipse;whiteSpace=wrap;html=1;aspect=fixed;fontSize=17;fontFamily=Times New Roman;" parent="1" vertex="1">
                    <mxGeometry x="525" y="143.75" width="30" height="30" as="geometry"/>
                </mxCell>
                <mxCell id="23" value="Send subroutine S2" style="text;html=1;align=center;verticalAlign=middle;whiteSpace=wrap;rounded=0;fontSize=17;fontFamily=Times New Roman;" parent="1" vertex="1">
                    <mxGeometry x="555" y="150" width="80" height="30" as="geometry"/>
                </mxCell>
                <mxCell id="40" style="edgeStyle=none;html=1;exitX=0.5;exitY=1;exitDx=0;exitDy=0;fillColor=#6a00ff;strokeColor=#3700CC;strokeWidth=4;fontSize=17;fontFamily=Times New Roman;" parent="1" source="24" target="26" edge="1">
                    <mxGeometry relative="1" as="geometry"/>
                </mxCell>
                <mxCell id="24" value="9a" style="ellipse;whiteSpace=wrap;html=1;aspect=fixed;fontSize=17;fontFamily=Times New Roman;" parent="1" vertex="1">
                    <mxGeometry x="525" y="230" width="30" height="30" as="geometry"/>
                </mxCell>
                <mxCell id="25" value="Start S2" style="text;html=1;align=center;verticalAlign=middle;whiteSpace=wrap;rounded=0;fontSize=17;fontFamily=Times New Roman;" parent="1" vertex="1">
                    <mxGeometry x="555" y="230" width="60" height="30" as="geometry"/>
                </mxCell>
                <mxCell id="26" value="10a" style="ellipse;whiteSpace=wrap;html=1;aspect=fixed;fontSize=17;fontFamily=Times New Roman;" parent="1" vertex="1">
                    <mxGeometry x="525" y="310" width="30" height="30" as="geometry"/>
                </mxCell>
                <mxCell id="41" style="edgeStyle=orthogonalEdgeStyle;html=1;exitX=1;exitY=0.5;exitDx=0;exitDy=0;entryX=0.5;entryY=1;entryDx=0;entryDy=0;rounded=0;curved=0;fontSize=17;fontFamily=Times New Roman;" parent="1" source="26" target="30" edge="1">
                    <mxGeometry relative="1" as="geometry">
                        <Array as="points">
                            <mxPoint x="670" y="325"/>
                        </Array>
                    </mxGeometry>
                </mxCell>
                <mxCell id="27" value="Measure QS" style="text;html=1;align=center;verticalAlign=middle;whiteSpace=wrap;rounded=0;fontSize=17;fontFamily=Times New Roman;" parent="1" vertex="1">
                    <mxGeometry x="565" y="310" width="60" height="30" as="geometry"/>
                </mxCell>
                <mxCell id="28" value="12a" style="ellipse;whiteSpace=wrap;html=1;aspect=fixed;fontSize=17;fontFamily=Times New Roman;" parent="1" vertex="1">
                    <mxGeometry x="655" y="140" width="30" height="30" as="geometry"/>
                </mxCell>
                <mxCell id="29" value="Receive S2 results" style="text;html=1;align=center;verticalAlign=middle;whiteSpace=wrap;rounded=0;fontSize=17;fontFamily=Times New Roman;" parent="1" vertex="1">
                    <mxGeometry x="685" y="145" width="70" height="30" as="geometry"/>
                </mxCell>
                <mxCell id="42" style="edgeStyle=none;html=1;exitX=0.5;exitY=0;exitDx=0;exitDy=0;entryX=0.5;entryY=1;entryDx=0;entryDy=0;fontSize=17;fontFamily=Times New Roman;" parent="1" source="30" target="28" edge="1">
                    <mxGeometry relative="1" as="geometry"/>
                </mxCell>
                <mxCell id="30" value="11a" style="ellipse;whiteSpace=wrap;html=1;aspect=fixed;fontSize=17;fontFamily=Times New Roman;" parent="1" vertex="1">
                    <mxGeometry x="655" y="230" width="30" height="30" as="geometry"/>
                </mxCell>
                <mxCell id="31" value="Finish S2" style="text;html=1;align=center;verticalAlign=middle;whiteSpace=wrap;rounded=0;fontSize=17;fontFamily=Times New Roman;" parent="1" vertex="1">
                    <mxGeometry x="685" y="230" width="60" height="30" as="geometry"/>
                </mxCell>
                <mxCell id="43" style="edgeStyle=none;html=1;exitX=0.5;exitY=1;exitDx=0;exitDy=0;entryX=0.5;entryY=0;entryDx=0;entryDy=0;fontSize=17;fontFamily=Times New Roman;" parent="1" source="44" target="47" edge="1">
                    <mxGeometry relative="1" as="geometry"/>
                </mxCell>
                <mxCell id="44" value="1b" style="ellipse;whiteSpace=wrap;html=1;aspect=fixed;fontSize=17;fontFamily=Times New Roman;" parent="1" vertex="1">
                    <mxGeometry x="1015" y="135" width="30" height="30" as="geometry"/>
                </mxCell>
                <mxCell id="45" value="Submit subroutine S1" style="text;html=1;align=center;verticalAlign=middle;whiteSpace=wrap;rounded=0;fontSize=17;fontFamily=Times New Roman;" parent="1" vertex="1">
                    <mxGeometry x="1045" y="140" width="80" height="30" as="geometry"/>
                </mxCell>
                <mxCell id="46" style="edgeStyle=none;html=1;exitX=0.5;exitY=1;exitDx=0;exitDy=0;entryX=0.5;entryY=0;entryDx=0;entryDy=0;fontSize=17;fontFamily=Times New Roman;" parent="1" source="47" target="49" edge="1">
                    <mxGeometry relative="1" as="geometry"/>
                </mxCell>
                <mxCell id="47" value="2b" style="ellipse;whiteSpace=wrap;html=1;aspect=fixed;fontSize=17;fontFamily=Times New Roman;" parent="1" vertex="1">
                    <mxGeometry x="1015" y="228.75" width="30" height="30" as="geometry"/>
                </mxCell>
                <mxCell id="48" value="Start S1" style="text;html=1;align=center;verticalAlign=middle;whiteSpace=wrap;rounded=0;fontSize=17;fontFamily=Times New Roman;" parent="1" vertex="1">
                    <mxGeometry x="1050" y="230" width="60" height="30" as="geometry"/>
                </mxCell>
                <mxCell id="61" style="edgeStyle=none;html=1;exitX=0;exitY=0.5;exitDx=0;exitDy=0;entryX=1;entryY=0.5;entryDx=0;entryDy=0;fillColor=#dae8fc;strokeColor=#6c8ebf;strokeWidth=4;fontSize=17;fontFamily=Times New Roman;" parent="1" source="49" target="53" edge="1">
                    <mxGeometry relative="1" as="geometry"/>
                </mxCell>
                <mxCell id="49" value="3" style="ellipse;whiteSpace=wrap;html=1;aspect=fixed;fillColor=#d5e8d4;strokeColor=#82b366;fontSize=17;fontFamily=Times New Roman;" parent="1" vertex="1">
                    <mxGeometry x="1015" y="300" width="30" height="30" as="geometry"/>
                </mxCell>
                <mxCell id="51" value="&lt;div style=&quot;font-size: 17px;&quot;&gt;Entangled qubit QC created&lt;/div&gt;" style="text;html=1;align=center;verticalAlign=middle;whiteSpace=wrap;rounded=0;fontSize=17;fontFamily=Times New Roman;" parent="1" vertex="1">
                    <mxGeometry x="990" y="360" width="90" height="30" as="geometry"/>
                </mxCell>
                <mxCell id="52" style="edgeStyle=none;html=1;exitX=0.5;exitY=0;exitDx=0;exitDy=0;entryX=0.5;entryY=1;entryDx=0;entryDy=0;fillColor=#dae8fc;strokeColor=#6c8ebf;strokeWidth=4;fontSize=17;fontFamily=Times New Roman;" parent="1" source="53" target="56" edge="1">
                    <mxGeometry relative="1" as="geometry">
                        <mxPoint x="900" y="251.25" as="targetPoint"/>
                    </mxGeometry>
                </mxCell>
                <mxCell id="53" value="4b" style="ellipse;whiteSpace=wrap;html=1;aspect=fixed;fontSize=17;fontFamily=Times New Roman;" parent="1" vertex="1">
                    <mxGeometry x="885" y="301.25" width="30" height="30" as="geometry"/>
                </mxCell>
                <mxCell id="54" value="Measure QC" style="text;html=1;align=center;verticalAlign=middle;whiteSpace=wrap;rounded=0;fontSize=17;fontFamily=Times New Roman;" parent="1" vertex="1">
                    <mxGeometry x="820" y="300" width="60" height="30" as="geometry"/>
                </mxCell>
                <mxCell id="55" style="edgeStyle=none;html=1;exitX=0.5;exitY=0;exitDx=0;exitDy=0;entryX=0.5;entryY=1;entryDx=0;entryDy=0;fillColor=#ffe6cc;strokeColor=#d79b00;strokeWidth=4;fontSize=17;fontFamily=Times New Roman;" parent="1" source="56" target="58" edge="1">
                    <mxGeometry relative="1" as="geometry"/>
                </mxCell>
                <mxCell id="56" value="5b" style="ellipse;whiteSpace=wrap;html=1;aspect=fixed;fontSize=17;fontFamily=Times New Roman;" parent="1" vertex="1">
                    <mxGeometry x="885" y="228.75" width="30" height="30" as="geometry"/>
                </mxCell>
                <mxCell id="57" value="Finish S1" style="text;html=1;align=center;verticalAlign=middle;whiteSpace=wrap;rounded=0;fontSize=17;fontFamily=Times New Roman;" parent="1" vertex="1">
                    <mxGeometry x="820" y="228.75" width="60" height="30" as="geometry"/>
                </mxCell>
                <mxCell id="64" style="edgeStyle=none;html=1;exitX=0;exitY=0.5;exitDx=0;exitDy=0;entryX=1;entryY=0.5;entryDx=0;entryDy=0;fillColor=#f8cecc;strokeColor=#b85450;strokeWidth=4;fontSize=17;fontFamily=Times New Roman;" parent="1" source="58" target="62" edge="1">
                    <mxGeometry relative="1" as="geometry"/>
                </mxCell>
                <mxCell id="58" value="6b" style="ellipse;whiteSpace=wrap;html=1;aspect=fixed;fontSize=17;fontFamily=Times New Roman;" parent="1" vertex="1">
                    <mxGeometry x="885" y="135" width="30" height="30" as="geometry"/>
                </mxCell>
                <mxCell id="60" value="Receive S1&lt;div style=&quot;font-size: 17px;&quot;&gt;results&lt;/div&gt;" style="text;html=1;align=center;verticalAlign=middle;whiteSpace=wrap;rounded=0;fontSize=17;fontFamily=Times New Roman;" parent="1" vertex="1">
                    <mxGeometry x="910" y="135" width="65" height="30" as="geometry"/>
                </mxCell>
                <mxCell id="74" style="edgeStyle=orthogonalEdgeStyle;html=1;exitX=0;exitY=0;exitDx=0;exitDy=0;entryX=1;entryY=0;entryDx=0;entryDy=0;curved=1;strokeWidth=2;fontSize=17;fontFamily=Times New Roman;" parent="1" source="62" target="20" edge="1">
                    <mxGeometry relative="1" as="geometry">
                        <Array as="points">
                            <mxPoint x="803" y="130"/>
                            <mxPoint x="436" y="130"/>
                        </Array>
                    </mxGeometry>
                </mxCell>
                <mxCell id="62" value="7b" style="ellipse;whiteSpace=wrap;html=1;aspect=fixed;fontSize=17;fontFamily=Times New Roman;" parent="1" vertex="1">
                    <mxGeometry x="801.25" y="136.25" width="28.75" height="28.75" as="geometry"/>
                </mxCell>
                <mxCell id="63" value="Send message M" style="text;html=1;align=center;verticalAlign=middle;whiteSpace=wrap;rounded=0;fontSize=17;fontFamily=Times New Roman;" parent="1" vertex="1">
                    <mxGeometry x="780" y="100" width="80" height="30" as="geometry"/>
                </mxCell>
                <mxCell id="66" value="" style="endArrow=none;dashed=1;html=1;dashPattern=1 3;strokeWidth=2;fontSize=17;fontFamily=Times New Roman;" parent="1" edge="1">
                    <mxGeometry width="50" height="50" relative="1" as="geometry">
                        <mxPoint x="70" y="200" as="sourcePoint"/>
                        <mxPoint x="750" y="200" as="targetPoint"/>
                    </mxGeometry>
                </mxCell>
                <mxCell id="67" value="" style="endArrow=none;dashed=1;html=1;dashPattern=1 3;strokeWidth=2;fontSize=17;fontFamily=Times New Roman;" parent="1" edge="1">
                    <mxGeometry width="50" height="50" relative="1" as="geometry">
                        <mxPoint x="70" y="290" as="sourcePoint"/>
                        <mxPoint x="750" y="290" as="targetPoint"/>
                    </mxGeometry>
                </mxCell>
                <mxCell id="68" value="Host" style="text;html=1;align=center;verticalAlign=middle;whiteSpace=wrap;rounded=0;fontStyle=2;fontSize=17;fontFamily=Times New Roman;" parent="1" vertex="1">
                    <mxGeometry x="70" y="150" width="60" height="30" as="geometry"/>
                </mxCell>
                <mxCell id="69" value="QNodeOS" style="text;html=1;align=center;verticalAlign=middle;whiteSpace=wrap;rounded=0;fontStyle=2;fontSize=17;fontFamily=Times New Roman;" parent="1" vertex="1">
                    <mxGeometry x="70" y="230" width="60" height="30" as="geometry"/>
                </mxCell>
                <mxCell id="70" value="Quantum device" style="text;html=1;align=center;verticalAlign=middle;whiteSpace=wrap;rounded=0;fontStyle=2;fontSize=17;fontFamily=Times New Roman;" parent="1" vertex="1">
                    <mxGeometry x="70" y="320" width="60" height="30" as="geometry"/>
                </mxCell>
                <mxCell id="72" value="Server" style="text;html=1;align=center;verticalAlign=middle;whiteSpace=wrap;rounded=0;fontSize=17;fontFamily=Times New Roman;" parent="1" vertex="1">
                    <mxGeometry x="380" y="50" width="60" height="30" as="geometry"/>
                </mxCell>
                <mxCell id="73" value="Client" style="text;html=1;align=center;verticalAlign=middle;whiteSpace=wrap;rounded=0;fontSize=17;fontFamily=Times New Roman;" parent="1" vertex="1">
                    <mxGeometry x="940" y="50" width="60" height="30" as="geometry"/>
                </mxCell>
                <mxCell id="75" value="" style="endArrow=none;html=1;exitX=0.5;exitY=1;exitDx=0;exitDy=0;entryX=0;entryY=1;entryDx=0;entryDy=0;edgeStyle=orthogonalEdgeStyle;curved=1;startArrow=none;startFill=0;dashed=1;strokeWidth=2;fillColor=#d5e8d4;strokeColor=#82b366;dashPattern=1 2;fontSize=17;fontFamily=Times New Roman;endFill=0;" edge="1" parent="1" source="12" target="49">
                    <mxGeometry width="50" height="50" relative="1" as="geometry">
                        <mxPoint x="400" y="480" as="sourcePoint"/>
                        <mxPoint x="980" y="350" as="targetPoint"/>
                        <Array as="points">
                            <mxPoint x="180" y="350"/>
                            <mxPoint x="1023" y="350"/>
                        </Array>
                    </mxGeometry>
                </mxCell>
                <mxCell id="79" value="" style="endArrow=none;dashed=1;html=1;dashPattern=1 3;strokeWidth=2;fontSize=17;fontFamily=Times New Roman;" edge="1" parent="1">
                    <mxGeometry width="50" height="50" relative="1" as="geometry">
                        <mxPoint x="790" y="200" as="sourcePoint"/>
                        <mxPoint x="1120" y="200" as="targetPoint"/>
                    </mxGeometry>
                </mxCell>
                <mxCell id="80" value="" style="endArrow=none;dashed=1;html=1;dashPattern=1 3;strokeWidth=2;fontSize=17;fontFamily=Times New Roman;" edge="1" parent="1">
                    <mxGeometry width="50" height="50" relative="1" as="geometry">
                        <mxPoint x="790" y="290" as="sourcePoint"/>
                        <mxPoint x="1120" y="290" as="targetPoint"/>
                    </mxGeometry>
                </mxCell>
            </root>
        </mxGraphModel>
    </diagram>
</mxfile>